<svg width="15" height="28" viewBox="0 0 15 28" fill="none" xmlns="http://www.w3.org/2000/svg">
<path d="M12.1552 0C13.094 0 14.0328 0 15 0C15 1.62155 15 3.2431 15 4.91379C14.2319 4.91379 13.4638 4.91379 12.6724 4.91379C12.6724 5.76724 12.6724 6.62069 12.6724 7.5C11.819 7.5 10.9655 7.5 10.0862 7.5C10.0862 8.2681 10.0862 9.03621 10.0862 9.82759C9.23276 9.82759 8.37931 9.82759 7.5 9.82759C7.5 10.681 7.5 11.5345 7.5 12.4138C6.7319 12.4138 5.96379 12.4138 5.17241 12.4138C5.17241 13.0966 5.17241 13.7793 5.17241 14.4828C5.94052 14.4828 6.70862 14.4828 7.5 14.4828C7.5 15.3362 7.5 16.1897 7.5 17.069C8.35345 17.069 9.2069 17.069 10.0862 17.069C10.0862 17.8371 10.0862 18.6052 10.0862 19.3966C10.9397 19.3966 11.7931 19.3966 12.6724 19.3966C12.6724 20.25 12.6724 21.1034 12.6724 21.9828C13.4405 21.9828 14.2086 21.9828 15 21.9828C15 23.6897 15 25.3966 15 27.1552C14.0612 27.1552 13.1224 27.1552 12.1552 27.1552C12.1552 26.3871 12.1552 25.619 12.1552 24.8276C11.3871 24.8276 10.619 24.8276 9.82759 24.8276C9.82759 23.9741 9.82759 23.1207 9.82759 22.2414C9.05948 22.2414 8.29138 22.2414 7.5 22.2414C7.5 21.3879 7.5 20.5345 7.5 19.6552C6.64655 19.6552 5.7931 19.6552 4.91379 19.6552C4.91379 18.8871 4.91379 18.119 4.91379 17.3276C4.06034 17.3276 3.2069 17.3276 2.32759 17.3276C2.32759 16.4741 2.32759 15.6207 2.32759 14.7414C1.55948 14.7414 0.791379 14.7414 0 14.7414C0 13.8879 0 13.0345 0 12.1552C0.768103 12.1552 1.53621 12.1552 2.32759 12.1552V11.0058V9.56896C2.71552 9.56896 2.58621 9.56896 3.10345 9.56896C4.0005 9.56896 4.00862 9.56896 4.91379 9.56896C4.91379 8.80086 4.91379 8.03276 4.91379 7.24138C5.76724 7.24138 6.62069 7.24138 7.5 7.24138C7.5 6.38793 7.5 5.53448 7.5 4.65517C8.2681 4.65517 9.03621 4.65517 9.82759 4.65517C9.82759 3.88707 9.82759 3.11897 9.82759 2.32759C10.5957 2.32759 11.3638 2.32759 12.1552 2.32759C12.1552 1.55948 12.1552 0.791379 12.1552 0Z" fill="black"/>
</svg>
