<svg width="19" height="19" viewBox="0 0 19 19" fill="none" xmlns="http://www.w3.org/2000/svg">
<path d="M1.1875 0.593749V1.1875H0.59375H0V9.5V17.8125H0.59375H1.1875V18.4062V19H9.5H17.8125V18.4062V17.8125H18.4063H19V9.5V1.1875H18.4063H17.8125V0.593749V-9.90927e-07H9.5H1.1875V0.593749ZM16.625 9.5V16.625H9.5H2.375V9.5V2.375H9.5H16.625V9.5Z" fill="black"/>
<path d="M13.0625 5.34375V5.9375H12.4687H11.875V6.53125V7.125H11.2813H10.6875V7.71875V8.3125H10.0938H9.5V8.90625V9.5H8.90625H8.3125V10.0937V10.6875H7.71875H7.125V10.0937V9.5H6.53125H5.9375V8.90625V8.3125H4.75H3.5625V9.5V10.6875H4.15625H4.75V11.2812V11.875H5.34375H5.9375V12.4687V13.0625H7.71875H9.5V12.4687V11.875H10.0938H10.6875V11.2812V10.6875H11.2813H11.875V10.0937V9.5H12.4687H13.0625V8.90625V8.3125H13.6563H14.25V7.71875V7.125H14.8438H15.4375V6.53125V5.9375H14.8438H14.25V5.34375V4.75H13.6563H13.0625V5.34375Z" fill="black"/>
</svg>
