<svg width="25" height="25" viewBox="0 0 25 25" fill="none" xmlns="http://www.w3.org/2000/svg">
<path fill-rule="evenodd" clip-rule="evenodd" d="M10.6509 9C11.9088 9 13.1667 9 14.4245 9C14.4245 9.55031 14.4245 10.1006 14.4245 10.6509C14.9748 10.6509 15.5252 10.6509 16.0755 10.6509C16.0755 11.9088 16.0755 13.1667 16.0755 14.4245C15.5252 14.4245 14.9748 14.4245 14.4245 14.4245C14.4245 14.9748 14.4245 15.5252 14.4245 16.0755C13.1667 16.0755 11.9088 16.0755 10.6509 16.0755C10.6509 15.5252 10.6509 14.9748 10.6509 14.4245C10.1006 14.4245 9.55031 14.4245 9 14.4245C9 13.1667 9 11.9088 9 10.6509C9.55031 10.6509 10.1006 10.6509 10.6509 10.6509C10.6509 10.1006 10.6509 9.55031 10.6509 9Z" fill="#4D4D4D"/>
<path fill-rule="evenodd" clip-rule="evenodd" d="M10.6132 2C11.8711 2 13.1289 2 14.3868 2C14.3868 2.55031 14.3868 3.10064 14.3868 3.65094C16.1163 3.65094 17.8459 3.65094 19.5755 3.65094C19.5755 4.27988 19.5755 4.9088 19.5755 5.53774C20.2044 5.53774 20.8333 5.53774 21.4623 5.53774C21.4623 6.08804 21.4623 6.63837 21.4623 7.18868C22.0126 7.18868 22.563 7.18868 23.1132 7.18868C23.1132 7.81762 23.1132 8.44653 23.1132 9.07547C23.7422 9.07547 24.371 9.07547 25 9.07547C25 11.434 25 13.7925 25 16.1509C24.371 16.1509 23.7422 16.1509 23.1132 16.1509C23.1132 16.7799 23.1132 17.4088 23.1132 18.0377C22.563 18.0377 22.0126 18.0377 21.4623 18.0377C21.4623 18.588 21.4623 19.1384 21.4623 19.6887C20.8333 19.6887 20.2044 19.6887 19.5755 19.6887C19.5755 20.3176 19.5755 20.9465 19.5755 21.5755C17.8459 21.5755 16.1163 21.5755 14.3868 21.5755C14.3868 22.1258 14.3868 22.6762 14.3868 23.2264C13.1289 23.2264 11.8711 23.2264 10.6132 23.2264C10.6132 22.6762 10.6132 22.1258 10.6132 21.5755C8.88366 21.5755 7.15408 21.5755 5.42453 21.5755C5.42453 20.9465 5.42453 20.3176 5.42453 19.6887C4.79559 19.6887 4.16667 19.6887 3.53774 19.6887C3.53774 19.1384 3.53774 18.588 3.53774 18.0377C2.98743 18.0377 2.4371 18.0377 1.88679 18.0377C1.88679 17.4088 1.88679 16.7799 1.88679 16.1509C1.25785 16.1509 0.628932 16.1509 0 16.1509C0 13.7925 0 11.434 0 9.07547C0.628932 9.07547 1.25785 9.07547 1.88679 9.07547C1.88679 8.44653 1.88679 7.81762 1.88679 7.18868C2.4371 7.18868 2.98743 7.18868 3.53774 7.18868C3.53774 6.63837 3.53774 6.08804 3.53774 5.53774C4.16667 5.53774 4.79559 5.53774 5.42453 5.53774C5.42453 4.9088 5.42453 4.27988 5.42453 3.65094C7.15408 3.65094 8.88366 3.65094 10.6132 3.65094C10.6132 3.10064 10.6132 2.55031 10.6132 2ZM8.96226 7.42453C11.3208 7.42453 13.6792 7.42453 16.0377 7.42453C16.0377 7.97484 16.0377 8.52517 16.0377 9.07547C16.588 9.07547 17.1384 9.07547 17.6887 9.07547C17.6887 11.434 17.6887 13.7925 17.6887 16.1509C17.1384 16.1509 16.588 16.1509 16.0377 16.1509C16.0377 16.7013 16.0377 17.2516 16.0377 17.8019C13.6792 17.8019 11.3208 17.8019 8.96226 17.8019C8.96226 17.2516 8.96226 16.7013 8.96226 16.1509C8.41196 16.1509 7.86163 16.1509 7.31132 16.1509C7.31132 13.7925 7.31132 11.434 7.31132 9.07547C7.86163 9.07547 8.41196 9.07547 8.96226 9.07547C8.96226 8.52517 8.96226 7.97484 8.96226 7.42453Z" fill="#4D4D4D"/>
</svg>
