<svg width="25" height="25" viewBox="0 0 25 25" fill="none" xmlns="http://www.w3.org/2000/svg">
<path d="M8.61109 0H11.9273H13.1351H14.8674H15.4162H16.9444V0.605834V1.31384V2.02366V2.77778H17.4933H18.2031H18.9111C19.7222 2.77778 19.7222 2.77778 19.7222 2.77778V4.46868V5.04376V6.8694V8.10412V11.1111H16.9444C16.9444 12.0278 16.9444 12.9444 16.9444 13.8889C14.118 13.8889 11.5231 13.8889 8.61109 13.8889C8.61109 12.9722 8.61109 12.0556 8.61109 11.1111C7.69442 11.1111 6.77776 11.1111 5.83331 11.1111C5.83331 8.20833 5.83331 5.76852 5.83331 2.77778H8.61109V0ZM8.61109 2.77778C8.61109 5.45139 8.61109 8.35648 8.61109 11.1111C11.2847 11.1111 14.1898 11.1111 16.9444 11.1111V2.77778H8.61109Z" fill="#424242"/>
<path d="M2.77778 13.8889H5.55556V14.3012V16.6667H2.77778V22.2222C2.77778 22.2222 15.6898 22.2222 22.2222 22.2222C22.2222 20.3889 22.2222 18.5556 22.2222 16.6667H19.4444V13.8889H22.2222V14.2633C22.2222 14.2633 22.2222 16.0111 22.2222 16.6667C23.1389 16.6667 24.0556 16.6667 25 16.6667V19.8765V21.118V22.8986V23.4627V25H24.5811H24.0231H23.7039H23.3847H22.6788H21.9398H19.5086H18.6684H17.8281C16.3504 24.9991 14.8727 25.0026 13.3951 25H8.87541H0V16.6667H2.77778V13.8889Z" fill="#424242"/>
</svg>
