<svg width="20" height="25" viewBox="0 0 20 25" fill="none" xmlns="http://www.w3.org/2000/svg">
<path d="M5.56941 0.037962C5.54772 0.0542297 5.53145 0.677874 5.53145 1.4154V2.76573L4.16486 2.77657L2.79284 2.79284L2.77657 5.56941L2.76573 8.35141H1.38286H0V16.6757V25H9.70716H19.4143V16.6757V8.35141H18.0315H16.6486V5.55857V2.76573H15.2657H13.8829V1.38286V0H9.74512C7.46746 0 5.58568 0.0162697 5.56941 0.037962ZM13.8829 5.55857V8.35141H9.70716H5.53145V5.55857V2.76573H9.70716H13.8829V5.55857ZM16.6486 16.6757V22.2343H9.70716H2.76573V16.6757V11.1171H9.70716H16.6486V16.6757Z" fill="#424242"/>
<path d="M8.35138 16.6757V19.4685H9.73424H11.1171V16.6757V13.8828H9.73424H8.35138V16.6757Z" fill="#424242"/>
</svg>
